<?xml version="1.0" encoding="utf-8" ?>
<!DOCTYPE svg PUBLIC "-//W3C//DTD SVG 1.1//EN" "http://www.w3.org/Graphics/SVG/1.1/DTD/svg11.dtd">
<svg height="529" version="1.1" width="1323" xmlns="http://www.w3.org/2000/svg">
<rect fill="#ffffff" height="280" stroke="#ffffff" stroke-width="1" width="365" x="14" y="14"/>
<rect fill="none" height="280" stroke="#000000" stroke-width="1" width="365" x="14" y="14"/>
<text font-family="Dialog" font-size="12" x="122" y="28">
+ ad::cdm::model::Persona</text>
<rect fill="#000000" height="1" stroke="#000000" stroke-width="1" width="365" x="14" y="38"/>
<text font-family="Dialog" font-size="12" x="18" y="53">
-id : long</text>
<text font-family="Dialog" font-size="12" x="18" y="70">
-dni : String</text>
<text font-family="Dialog" font-size="12" x="18" y="87">
-edad : int</text>
<text font-family="Dialog" font-size="12" x="18" y="104">
-salario : float</text>
<rect fill="#000000" height="1" stroke="#000000" stroke-width="1" width="365" x="14" y="114"/>
<text font-family="Dialog" font-size="12" x="18" y="129">
&lt;&lt;create&gt;&gt; +Persona(id : long,dni : String,edad : int,salario : float)</text>
<text font-family="Dialog" font-size="12" x="18" y="146">
+getId() : long</text>
<text font-family="Dialog" font-size="12" x="18" y="163">
+setId(id : long) : void</text>
<text font-family="Dialog" font-size="12" x="18" y="180">
+getDni() : String</text>
<text font-family="Dialog" font-size="12" x="18" y="197">
+setDni(dni : String) : void</text>
<text font-family="Dialog" font-size="12" x="18" y="214">
+getEdad() : int</text>
<text font-family="Dialog" font-size="12" x="18" y="231">
+setEdad(edad : int) : void</text>
<text font-family="Dialog" font-size="12" x="18" y="248">
+getSalario() : float</text>
<text font-family="Dialog" font-size="12" x="18" y="265">
+setSalario(salario : float) : void</text>
<text font-family="Dialog" font-size="12" x="18" y="282">
+toString() : String</text>
<rect fill="#ffffff" height="87" stroke="#ffffff" stroke-width="1" width="309" x="734" y="14"/>
<rect fill="none" height="87" stroke="#000000" stroke-width="1" width="309" x="734" y="14"/>
<text font-family="Dialog" font-size="12" x="785" y="48">
+ ad::cdm::persistencia::IPersistencia</text>
<text font-family="Dialog" font-size="12" x="851" y="29">
&lt;&lt;interface&gt;&gt;</text>
<rect fill="#000000" height="1" stroke="#000000" stroke-width="1" width="309" x="734" y="58"/>
<text font-family="Dialog" font-size="12" x="738" y="73">
~escribirPersona(persona : Persona,ruta : String) : void</text>
<text font-family="Dialog" font-size="12" x="738" y="90">
~leerPersona(ruta : String) : Persona</text>
<rect fill="#ffffff" height="72" stroke="#ffffff" stroke-width="1" width="309" x="494" y="230"/>
<rect fill="none" height="72" stroke="#000000" stroke-width="1" width="309" x="494" y="230"/>
<text font-family="Dialog" font-size="12" x="528" y="244">
+ ad::cdm::persistencia::DataIOPersistencia</text>
<rect fill="#000000" height="1" stroke="#000000" stroke-width="1" width="309" x="494" y="254"/>
<rect fill="#000000" height="1" stroke="#000000" stroke-width="1" width="309" x="494" y="275"/>
<text font-family="Dialog" font-size="12" x="498" y="290">
+escribirPersona(persona : Persona,ruta : String) : void</text>
<line fill="#000000" stroke="#000000" stroke-width="1" x1="802" x2="802" y1="230" y2="225"/>
<line fill="#000000" stroke="#000000" stroke-width="1" x1="802" x2="802" y1="220" y2="215"/>
<line fill="#000000" stroke="#000000" stroke-width="1" x1="802" x2="802" y1="210" y2="205"/>
<line fill="#000000" stroke="#000000" stroke-width="1" x1="802" x2="802" y1="200" y2="195"/>
<line fill="#000000" stroke="#000000" stroke-width="1" x1="802" x2="802" y1="190" y2="185"/>
<line fill="#000000" stroke="#000000" stroke-width="1" x1="802" x2="802" y1="180" y2="175"/>
<line fill="#000000" stroke="#000000" stroke-width="1" x1="802" x2="802" y1="170" y2="165"/>
<line fill="#000000" stroke="#000000" stroke-width="1" x1="802" x2="802" y1="160" y2="155"/>
<line fill="#000000" stroke="#000000" stroke-width="1" x1="802" x2="802" y1="150" y2="145"/>
<line fill="#000000" stroke="#000000" stroke-width="1" x1="802" x2="802" y1="140" y2="135"/>
<line fill="#000000" stroke="#000000" stroke-width="1" x1="802" x2="802" y1="130" y2="125"/>
<line fill="#000000" stroke="#000000" stroke-width="1" x1="802" x2="802" y1="120" y2="115"/>
<line fill="#000000" stroke="#000000" stroke-width="1" x1="802" x2="802" y1="110" y2="105"/>
<polygon fill="#ffffff" points="802,100 809,112 795,112" stroke="#ffffff" stroke-width="1"/>
<polygon fill="none" points="802,100 809,112 795,112" stroke="#000000" stroke-width="1"/>
<text font-family="Dialog" font-size="12" x="565" y="162">
DataIOPersistencia -&gt; IPersistencia</text>
<text font-family="Dialog" font-size="12" x="577" y="180">
&lt;&lt;realize&gt;&gt;</text>
<rect fill="#ffffff" height="89" stroke="#ffffff" stroke-width="1" width="309" x="990" y="222"/>
<rect fill="none" height="89" stroke="#000000" stroke-width="1" width="309" x="990" y="222"/>
<text font-family="Dialog" font-size="12" x="999" y="236">
+ ad::cdm::persistencia::RandomAccessPersistencia</text>
<rect fill="#000000" height="1" stroke="#000000" stroke-width="1" width="309" x="990" y="246"/>
<rect fill="#000000" height="1" stroke="#000000" stroke-width="1" width="309" x="990" y="267"/>
<text font-family="Dialog" font-size="12" x="994" y="282">
+escribirPersona(persona : Persona,ruta : String) : void</text>
<text font-family="Dialog" font-size="12" x="994" y="299">
+leerPersona(ruta : String) : Persona</text>
<line fill="#000000" stroke="#000000" stroke-width="1" x1="1039" x2="1039" y1="222" y2="217"/>
<line fill="#000000" stroke="#000000" stroke-width="1" x1="1039" x2="1039" y1="212" y2="207"/>
<line fill="#000000" stroke="#000000" stroke-width="1" x1="1039" x2="1039" y1="202" y2="197"/>
<line fill="#000000" stroke="#000000" stroke-width="1" x1="1039" x2="1039" y1="192" y2="187"/>
<line fill="#000000" stroke="#000000" stroke-width="1" x1="1039" x2="1039" y1="182" y2="177"/>
<line fill="#000000" stroke="#000000" stroke-width="1" x1="1039" x2="1039" y1="172" y2="167"/>
<line fill="#000000" stroke="#000000" stroke-width="1" x1="1039" x2="1039" y1="162" y2="157"/>
<line fill="#000000" stroke="#000000" stroke-width="1" x1="1039" x2="1039" y1="152" y2="147"/>
<line fill="#000000" stroke="#000000" stroke-width="1" x1="1039" x2="1039" y1="142" y2="137"/>
<line fill="#000000" stroke="#000000" stroke-width="1" x1="1039" x2="1039" y1="132" y2="127"/>
<line fill="#000000" stroke="#000000" stroke-width="1" x1="1039" x2="1039" y1="122" y2="117"/>
<line fill="#000000" stroke="#000000" stroke-width="1" x1="1039" x2="1039" y1="112" y2="107"/>
<line fill="#000000" stroke="#000000" stroke-width="1" x1="1039" x2="1039" y1="102" y2="100"/>
<polygon fill="#ffffff" points="1039,100 1046,112 1032,112" stroke="#ffffff" stroke-width="1"/>
<polygon fill="none" points="1039,100 1046,112 1032,112" stroke="#000000" stroke-width="1"/>
<text font-family="Dialog" font-size="12" x="1062" y="166">
RandomAccessPersistencia -&gt; IPersistencia</text>
<text font-family="Dialog" font-size="12" x="1074" y="184">
&lt;&lt;realize&gt;&gt;</text>
<line fill="#000000" stroke="#000000" stroke-width="1" x1="734" x2="729" y1="54" y2="54"/>
<line fill="#000000" stroke="#000000" stroke-width="1" x1="724" x2="719" y1="54" y2="54"/>
<line fill="#000000" stroke="#000000" stroke-width="1" x1="714" x2="709" y1="54" y2="54"/>
<line fill="#000000" stroke="#000000" stroke-width="1" x1="704" x2="699" y1="54" y2="54"/>
<line fill="#000000" stroke="#000000" stroke-width="1" x1="694" x2="689" y1="54" y2="54"/>
<line fill="#000000" stroke="#000000" stroke-width="1" x1="684" x2="679" y1="54" y2="54"/>
<line fill="#000000" stroke="#000000" stroke-width="1" x1="674" x2="669" y1="54" y2="54"/>
<line fill="#000000" stroke="#000000" stroke-width="1" x1="664" x2="659" y1="54" y2="54"/>
<line fill="#000000" stroke="#000000" stroke-width="1" x1="654" x2="649" y1="54" y2="54"/>
<line fill="#000000" stroke="#000000" stroke-width="1" x1="644" x2="639" y1="54" y2="54"/>
<line fill="#000000" stroke="#000000" stroke-width="1" x1="634" x2="629" y1="54" y2="54"/>
<line fill="#000000" stroke="#000000" stroke-width="1" x1="624" x2="619" y1="54" y2="54"/>
<line fill="#000000" stroke="#000000" stroke-width="1" x1="614" x2="609" y1="54" y2="54"/>
<line fill="#000000" stroke="#000000" stroke-width="1" x1="604" x2="599" y1="54" y2="54"/>
<line fill="#000000" stroke="#000000" stroke-width="1" x1="594" x2="589" y1="54" y2="54"/>
<line fill="#000000" stroke="#000000" stroke-width="1" x1="584" x2="579" y1="54" y2="54"/>
<line fill="#000000" stroke="#000000" stroke-width="1" x1="574" x2="569" y1="54" y2="54"/>
<line fill="#000000" stroke="#000000" stroke-width="1" x1="564" x2="559" y1="54" y2="54"/>
<line fill="#000000" stroke="#000000" stroke-width="1" x1="554" x2="549" y1="54" y2="54"/>
<line fill="#000000" stroke="#000000" stroke-width="1" x1="544" x2="539" y1="54" y2="54"/>
<line fill="#000000" stroke="#000000" stroke-width="1" x1="534" x2="529" y1="54" y2="54"/>
<line fill="#000000" stroke="#000000" stroke-width="1" x1="524" x2="519" y1="54" y2="54"/>
<line fill="#000000" stroke="#000000" stroke-width="1" x1="514" x2="509" y1="54" y2="54"/>
<line fill="#000000" stroke="#000000" stroke-width="1" x1="504" x2="499" y1="54" y2="54"/>
<line fill="#000000" stroke="#000000" stroke-width="1" x1="494" x2="489" y1="54" y2="54"/>
<line fill="#000000" stroke="#000000" stroke-width="1" x1="484" x2="479" y1="54" y2="54"/>
<line fill="#000000" stroke="#000000" stroke-width="1" x1="474" x2="469" y1="54" y2="54"/>
<line fill="#000000" stroke="#000000" stroke-width="1" x1="464" x2="459" y1="54" y2="54"/>
<line fill="#000000" stroke="#000000" stroke-width="1" x1="454" x2="449" y1="54" y2="54"/>
<line fill="#000000" stroke="#000000" stroke-width="1" x1="444" x2="439" y1="54" y2="54"/>
<line fill="#000000" stroke="#000000" stroke-width="1" x1="434" x2="429" y1="54" y2="54"/>
<line fill="#000000" stroke="#000000" stroke-width="1" x1="424" x2="419" y1="54" y2="54"/>
<line fill="#000000" stroke="#000000" stroke-width="1" x1="414" x2="409" y1="54" y2="54"/>
<line fill="#000000" stroke="#000000" stroke-width="1" x1="404" x2="399" y1="54" y2="54"/>
<line fill="#000000" stroke="#000000" stroke-width="1" x1="394" x2="389" y1="54" y2="54"/>
<line fill="#000000" stroke="#000000" stroke-width="1" x1="384" x2="379" y1="54" y2="54"/>
<line fill="#000000" stroke="#000000" stroke-width="1" x1="390" x2="378" y1="47" y2="54"/>
<line fill="#000000" stroke="#000000" stroke-width="1" x1="390" x2="378" y1="61" y2="54"/>
<text font-family="Dialog" font-size="12" x="516" y="34">
usa</text>
<rect fill="#ffffff" height="76" stroke="#ffffff" stroke-width="1" width="154" x="934" y="430"/>
<rect fill="none" height="76" stroke="#000000" stroke-width="1" width="154" x="934" y="430"/>
<text font-family="Dialog" font-size="12" x="968" y="444">
+ ad::cdm::Main</text>
<rect fill="#000000" height="1" stroke="#000000" stroke-width="1" width="154" x="934" y="454"/>
<line fill="#000000" stroke="#000000" stroke-width="1" x1="938" x2="1064" y1="470" y2="470"/>
<text font-family="Dialog" font-size="12" x="938" y="469">
-OUTPUT_FILE : String</text>
<rect fill="#000000" height="1" stroke="#000000" stroke-width="1" width="154" x="934" y="479"/>
<line fill="#000000" stroke="#000000" stroke-width="1" x1="938" x2="1084" y1="495" y2="495"/>
<text font-family="Dialog" font-size="12" x="938" y="494">
+main(args : String[]) : void</text>
<rect fill="#ffffff" height="68" stroke="#ffffff" stroke-width="1" width="156" x="342" y="430"/>
<rect fill="none" height="68" stroke="#000000" stroke-width="1" width="156" x="342" y="430"/>
<text font-family="Dialog" font-size="12" x="347" y="444">
+ java::util::logging::Logger</text>
<rect fill="#000000" height="1" stroke="#000000" stroke-width="1" width="156" x="342" y="454"/>
<rect fill="#000000" height="1" stroke="#000000" stroke-width="1" width="156" x="342" y="475"/>
<polyline fill="none" points="497,478 710,478 934,478" stroke="#000000" stroke-width="1"/>
<line fill="#000000" stroke="#000000" stroke-width="1" x1="509" x2="497" y1="471" y2="478"/>
<line fill="#000000" stroke="#000000" stroke-width="1" x1="509" x2="497" y1="485" y2="478"/>
<text font-family="Dialog" font-size="12" x="671" y="458">
 Main -&gt; Logger</text>
<text font-family="Dialog" font-size="12" x="508" y="473">
1</text>
<text font-family="Dialog" font-size="12" x="500" y="493">
~logger</text>
<line fill="#000000" stroke="#000000" stroke-width="1" x1="934" x2="934" y1="430" y2="425"/>
<line fill="#000000" stroke="#000000" stroke-width="1" x1="934" x2="934" y1="420" y2="415"/>
<line fill="#000000" stroke="#000000" stroke-width="1" x1="934" x2="934" y1="410" y2="405"/>
<line fill="#000000" stroke="#000000" stroke-width="1" x1="934" x2="934" y1="400" y2="395"/>
<line fill="#000000" stroke="#000000" stroke-width="1" x1="934" x2="934" y1="390" y2="385"/>
<line fill="#000000" stroke="#000000" stroke-width="1" x1="934" x2="934" y1="380" y2="375"/>
<line fill="#000000" stroke="#000000" stroke-width="1" x1="934" x2="934" y1="370" y2="365"/>
<line fill="#000000" stroke="#000000" stroke-width="1" x1="934" x2="934" y1="360" y2="355"/>
<line fill="#000000" stroke="#000000" stroke-width="1" x1="934" x2="934" y1="350" y2="345"/>
<line fill="#000000" stroke="#000000" stroke-width="1" x1="934" x2="934" y1="340" y2="335"/>
<line fill="#000000" stroke="#000000" stroke-width="1" x1="934" x2="934" y1="330" y2="325"/>
<line fill="#000000" stroke="#000000" stroke-width="1" x1="934" x2="934" y1="320" y2="315"/>
<line fill="#000000" stroke="#000000" stroke-width="1" x1="934" x2="934" y1="310" y2="305"/>
<line fill="#000000" stroke="#000000" stroke-width="1" x1="934" x2="934" y1="300" y2="295"/>
<line fill="#000000" stroke="#000000" stroke-width="1" x1="934" x2="934" y1="290" y2="285"/>
<line fill="#000000" stroke="#000000" stroke-width="1" x1="934" x2="934" y1="280" y2="275"/>
<line fill="#000000" stroke="#000000" stroke-width="1" x1="934" x2="934" y1="270" y2="265"/>
<line fill="#000000" stroke="#000000" stroke-width="1" x1="934" x2="934" y1="260" y2="255"/>
<line fill="#000000" stroke="#000000" stroke-width="1" x1="934" x2="934" y1="250" y2="245"/>
<line fill="#000000" stroke="#000000" stroke-width="1" x1="934" x2="934" y1="240" y2="235"/>
<line fill="#000000" stroke="#000000" stroke-width="1" x1="934" x2="934" y1="230" y2="225"/>
<line fill="#000000" stroke="#000000" stroke-width="1" x1="934" x2="934" y1="220" y2="215"/>
<line fill="#000000" stroke="#000000" stroke-width="1" x1="934" x2="934" y1="210" y2="205"/>
<line fill="#000000" stroke="#000000" stroke-width="1" x1="934" x2="934" y1="200" y2="195"/>
<line fill="#000000" stroke="#000000" stroke-width="1" x1="934" x2="934" y1="190" y2="185"/>
<line fill="#000000" stroke="#000000" stroke-width="1" x1="934" x2="934" y1="180" y2="175"/>
<line fill="#000000" stroke="#000000" stroke-width="1" x1="934" x2="934" y1="170" y2="165"/>
<line fill="#000000" stroke="#000000" stroke-width="1" x1="934" x2="934" y1="160" y2="155"/>
<line fill="#000000" stroke="#000000" stroke-width="1" x1="934" x2="934" y1="150" y2="145"/>
<line fill="#000000" stroke="#000000" stroke-width="1" x1="934" x2="934" y1="140" y2="135"/>
<line fill="#000000" stroke="#000000" stroke-width="1" x1="934" x2="934" y1="130" y2="125"/>
<line fill="#000000" stroke="#000000" stroke-width="1" x1="934" x2="934" y1="120" y2="115"/>
<line fill="#000000" stroke="#000000" stroke-width="1" x1="934" x2="934" y1="110" y2="105"/>
<line fill="#000000" stroke="#000000" stroke-width="1" x1="941" x2="934" y1="112" y2="100"/>
<line fill="#000000" stroke="#000000" stroke-width="1" x1="927" x2="934" y1="112" y2="100"/>
<text font-family="Dialog" font-size="12" x="848" y="284">
usa</text>
<line fill="#000000" stroke="#000000" stroke-width="1" x1="497" x2="497" y1="301" y2="306"/>
<line fill="#000000" stroke="#000000" stroke-width="1" x1="497" x2="497" y1="311" y2="316"/>
<line fill="#000000" stroke="#000000" stroke-width="1" x1="497" x2="497" y1="321" y2="326"/>
<line fill="#000000" stroke="#000000" stroke-width="1" x1="497" x2="497" y1="331" y2="336"/>
<line fill="#000000" stroke="#000000" stroke-width="1" x1="497" x2="497" y1="341" y2="346"/>
<line fill="#000000" stroke="#000000" stroke-width="1" x1="497" x2="497" y1="351" y2="356"/>
<line fill="#000000" stroke="#000000" stroke-width="1" x1="497" x2="497" y1="361" y2="366"/>
<line fill="#000000" stroke="#000000" stroke-width="1" x1="497" x2="497" y1="371" y2="376"/>
<line fill="#000000" stroke="#000000" stroke-width="1" x1="497" x2="497" y1="381" y2="386"/>
<line fill="#000000" stroke="#000000" stroke-width="1" x1="497" x2="497" y1="391" y2="396"/>
<line fill="#000000" stroke="#000000" stroke-width="1" x1="497" x2="497" y1="401" y2="406"/>
<line fill="#000000" stroke="#000000" stroke-width="1" x1="497" x2="497" y1="411" y2="416"/>
<line fill="#000000" stroke="#000000" stroke-width="1" x1="497" x2="497" y1="421" y2="426"/>
<line fill="#000000" stroke="#000000" stroke-width="1" x1="490" x2="497" y1="418" y2="430"/>
<line fill="#000000" stroke="#000000" stroke-width="1" x1="504" x2="497" y1="418" y2="430"/>
<text font-family="Dialog" font-size="12" x="504" y="370">
usa</text>
<line fill="#000000" stroke="#000000" stroke-width="1" x1="990" x2="986" y1="310" y2="311"/>
<line fill="#000000" stroke="#000000" stroke-width="1" x1="981" x2="976" y1="312" y2="313"/>
<line fill="#000000" stroke="#000000" stroke-width="1" x1="971" x2="966" y1="314" y2="315"/>
<line fill="#000000" stroke="#000000" stroke-width="1" x1="961" x2="956" y1="317" y2="318"/>
<line fill="#000000" stroke="#000000" stroke-width="1" x1="952" x2="947" y1="319" y2="320"/>
<line fill="#000000" stroke="#000000" stroke-width="1" x1="942" x2="937" y1="321" y2="323"/>
<line fill="#000000" stroke="#000000" stroke-width="1" x1="932" x2="927" y1="324" y2="325"/>
<line fill="#000000" stroke="#000000" stroke-width="1" x1="922" x2="918" y1="326" y2="327"/>
<line fill="#000000" stroke="#000000" stroke-width="1" x1="913" x2="908" y1="328" y2="330"/>
<line fill="#000000" stroke="#000000" stroke-width="1" x1="903" x2="898" y1="331" y2="332"/>
<line fill="#000000" stroke="#000000" stroke-width="1" x1="893" x2="888" y1="333" y2="334"/>
<line fill="#000000" stroke="#000000" stroke-width="1" x1="884" x2="879" y1="336" y2="337"/>
<line fill="#000000" stroke="#000000" stroke-width="1" x1="874" x2="869" y1="338" y2="339"/>
<line fill="#000000" stroke="#000000" stroke-width="1" x1="864" x2="859" y1="340" y2="341"/>
<line fill="#000000" stroke="#000000" stroke-width="1" x1="854" x2="850" y1="343" y2="344"/>
<line fill="#000000" stroke="#000000" stroke-width="1" x1="845" x2="840" y1="345" y2="346"/>
<line fill="#000000" stroke="#000000" stroke-width="1" x1="835" x2="830" y1="347" y2="349"/>
<line fill="#000000" stroke="#000000" stroke-width="1" x1="825" x2="820" y1="350" y2="351"/>
<line fill="#000000" stroke="#000000" stroke-width="1" x1="815" x2="811" y1="352" y2="353"/>
<line fill="#000000" stroke="#000000" stroke-width="1" x1="806" x2="801" y1="354" y2="356"/>
<line fill="#000000" stroke="#000000" stroke-width="1" x1="796" x2="791" y1="357" y2="358"/>
<line fill="#000000" stroke="#000000" stroke-width="1" x1="786" x2="781" y1="359" y2="360"/>
<line fill="#000000" stroke="#000000" stroke-width="1" x1="777" x2="772" y1="362" y2="363"/>
<line fill="#000000" stroke="#000000" stroke-width="1" x1="767" x2="762" y1="364" y2="365"/>
<line fill="#000000" stroke="#000000" stroke-width="1" x1="757" x2="752" y1="366" y2="367"/>
<line fill="#000000" stroke="#000000" stroke-width="1" x1="747" x2="743" y1="369" y2="370"/>
<line fill="#000000" stroke="#000000" stroke-width="1" x1="738" x2="733" y1="371" y2="372"/>
<line fill="#000000" stroke="#000000" stroke-width="1" x1="728" x2="723" y1="373" y2="375"/>
<line fill="#000000" stroke="#000000" stroke-width="1" x1="718" x2="713" y1="376" y2="377"/>
<line fill="#000000" stroke="#000000" stroke-width="1" x1="709" x2="704" y1="378" y2="379"/>
<line fill="#000000" stroke="#000000" stroke-width="1" x1="699" x2="694" y1="381" y2="382"/>
<line fill="#000000" stroke="#000000" stroke-width="1" x1="689" x2="684" y1="383" y2="384"/>
<line fill="#000000" stroke="#000000" stroke-width="1" x1="679" x2="674" y1="385" y2="386"/>
<line fill="#000000" stroke="#000000" stroke-width="1" x1="670" x2="665" y1="388" y2="389"/>
<line fill="#000000" stroke="#000000" stroke-width="1" x1="660" x2="655" y1="390" y2="391"/>
<line fill="#000000" stroke="#000000" stroke-width="1" x1="650" x2="645" y1="392" y2="394"/>
<line fill="#000000" stroke="#000000" stroke-width="1" x1="640" x2="636" y1="395" y2="396"/>
<line fill="#000000" stroke="#000000" stroke-width="1" x1="631" x2="626" y1="397" y2="398"/>
<line fill="#000000" stroke="#000000" stroke-width="1" x1="621" x2="616" y1="399" y2="401"/>
<line fill="#000000" stroke="#000000" stroke-width="1" x1="611" x2="606" y1="402" y2="403"/>
<line fill="#000000" stroke="#000000" stroke-width="1" x1="602" x2="597" y1="404" y2="405"/>
<line fill="#000000" stroke="#000000" stroke-width="1" x1="592" x2="587" y1="407" y2="408"/>
<line fill="#000000" stroke="#000000" stroke-width="1" x1="582" x2="577" y1="409" y2="410"/>
<line fill="#000000" stroke="#000000" stroke-width="1" x1="572" x2="568" y1="411" y2="412"/>
<line fill="#000000" stroke="#000000" stroke-width="1" x1="563" x2="558" y1="414" y2="415"/>
<line fill="#000000" stroke="#000000" stroke-width="1" x1="553" x2="548" y1="416" y2="417"/>
<line fill="#000000" stroke="#000000" stroke-width="1" x1="543" x2="538" y1="418" y2="420"/>
<line fill="#000000" stroke="#000000" stroke-width="1" x1="533" x2="529" y1="421" y2="422"/>
<line fill="#000000" stroke="#000000" stroke-width="1" x1="524" x2="519" y1="423" y2="424"/>
<line fill="#000000" stroke="#000000" stroke-width="1" x1="514" x2="509" y1="425" y2="427"/>
<line fill="#000000" stroke="#000000" stroke-width="1" x1="504" x2="499" y1="428" y2="429"/>
<line fill="#000000" stroke="#000000" stroke-width="1" x1="507" x2="497" y1="420" y2="430"/>
<line fill="#000000" stroke="#000000" stroke-width="1" x1="510" x2="497" y1="433" y2="430"/>
<text font-family="Dialog" font-size="12" x="699" y="350">
usa</text>
</svg>
